Coordinates
version=1
nRows=24
nColumns=38
inDegrees=no

Units are S.I. units (second, meters, Newtons, ...)
If the header above contains a line with 'inDegrees', this indicates whether rotational values are in degrees (yes) or radians (no).

endheader
time	pelvis_tilt	pelvis_list	pelvis_rotation	pelvis_tx	pelvis_ty	pelvis_tz	hip_flexion_r	hip_adduction_r	hip_rotation_r	knee_angle_r	ankle_angle_r	subtalar_angle_r	mtp_angle_r	hip_flexion_l	hip_adduction_l	hip_rotation_l	knee_angle_l	ankle_angle_l	subtalar_angle_l	mtp_angle_l	lumbar_extension	lumbar_bending	lumbar_rotation	arm_flex_r	arm_add_r	arm_rot_r	elbow_flex_r	pro_sup_r	wrist_flex_r	wrist_dev_r	arm_flex_l	arm_add_l	arm_rot_l	elbow_flex_l	pro_sup_l	wrist_flex_l	wrist_dev_l
30	-0.783813	1.38908	2.24444	0.658069	0.824173	0.817976	0.861083	-0.249944	0.0461722	1.56637	0.241293	0	0	0.7063	-0.00511567	-0.183334	1.50948	0.243127	0	0	-0.187206	0.228556	-0.151116	0.499329	-0.381409	0.399564	0.0510014	1.5708	0	0	-0.101857	-0.170145	-0.0322561	0.745591	1.40342	0	0
30.01	-0.786614	1.38927	2.24767	0.657753	0.824155	0.818462	0.859945	-0.250658	0.0462928	1.56488	0.240744	0	0	0.70501	-0.00436995	-0.183857	1.50734	0.242676	0	0	-0.188139	0.229417	-0.150683	0.498378	-0.384335	0.401197	0.0535978	1.5708	0	0	-0.0996171	-0.171209	-0.0275265	0.744922	1.40345	0	0
30.02	-0.789016	1.38947	2.24985	0.657572	0.824187	0.81903	0.858794	-0.250744	0.0467416	1.56306	0.240025	0	0	0.703415	-0.0044344	-0.185173	1.50487	0.2421	0	0	-0.188804	0.229944	-0.149507	0.497046	-0.387175	0.403334	0.0563948	1.5708	0	0	-0.0975722	-0.172562	-0.0225059	0.744234	1.40383	0	0
30.03	-0.792913	1.38973	2.25341	0.657404	0.824178	0.819727	0.857274	-0.251005	0.0471295	1.56071	0.239146	0	0	0.701404	-0.00454841	-0.186734	1.50206	0.2412	0	0	-0.189671	0.230181	-0.148091	0.495755	-0.390392	0.407916	0.060249	1.5708	0	0	-0.0952146	-0.174299	-0.0166807	0.743404	1.40378	0	0
30.04	-0.796368	1.38977	2.25683	0.657211	0.824156	0.820494	0.855759	-0.251597	0.0472782	1.55807	0.238228	0	0	0.699597	-0.00428215	-0.187857	1.49897	0.240133	0	0	-0.190028	0.230214	-0.147308	0.494793	-0.393454	0.414129	0.064291	1.5708	0	0	-0.0934829	-0.176141	-0.0114793	0.743257	1.40352	0	0
30.05	-0.799586	1.38983	2.25966	0.657062	0.824114	0.821336	0.854257	-0.251772	0.0476768	1.55524	0.237236	0	0	0.697773	-0.00417637	-0.189351	1.49539	0.239082	0	0	-0.190474	0.230262	-0.146431	0.494788	-0.395981	0.419929	0.0672747	1.5708	0	0	-0.0921284	-0.177861	-0.00715418	0.743703	1.40333	0	0
30.06	-0.801463	1.38985	2.26155	0.65684	0.824132	0.82225	0.852718	-0.252365	0.0473666	1.5523	0.235922	0	0	0.696043	-0.00378669	-0.190599	1.49135	0.237928	0	0	-0.190569	0.230797	-0.145885	0.494911	-0.398657	0.425235	0.0699654	1.5708	0	0	-0.0909838	-0.179454	-0.00258446	0.744109	1.40313	0	0
30.07	-0.801847	1.38978	2.26245	0.656558	0.824192	0.823209	0.851204	-0.253457	0.0464956	1.54914	0.234349	0	0	0.694467	-0.00313147	-0.191155	1.48719	0.236706	0	0	-0.190171	0.23172	-0.145809	0.495162	-0.401294	0.429659	0.0718831	1.5708	0	0	-0.0900238	-0.180939	0.00223447	0.744374	1.40267	0	0
30.08	-0.801595	1.38967	2.26241	0.656306	0.824238	0.824209	0.84975	-0.25414	0.0459549	1.54563	0.232698	0	0	0.692847	-0.00267368	-0.191737	1.48287	0.235476	0	0	-0.189717	0.23291	-0.145308	0.495827	-0.403901	0.433509	0.0727155	1.5708	0	0	-0.0892586	-0.182356	0.0072832	0.744943	1.40166	0	0
30.09	-0.801468	1.38965	2.26247	0.65604	0.824237	0.825266	0.848111	-0.254695	0.045453	1.54183	0.231072	0	0	0.691127	-0.00207273	-0.19206	1.47826	0.234243	0	0	-0.189573	0.234394	-0.144737	0.497312	-0.406291	0.436967	0.0723112	1.5708	0	0	-0.0885765	-0.183879	0.0126943	0.746035	1.39972	0	0
30.1	-0.800576	1.38964	2.26168	0.65577	0.824242	0.826367	0.846486	-0.255277	0.0446903	1.53796	0.229182	0	0	0.689349	-0.00165558	-0.192501	1.47341	0.233053	0	0	-0.189531	0.236115	-0.144384	0.499451	-0.408117	0.439377	0.0708599	1.5708	0	0	-0.0880205	-0.185501	0.0185319	0.747076	1.39649	0	0
30.11	-0.79941	1.38955	2.26075	0.655457	0.824217	0.827511	0.844775	-0.256041	0.0438079	1.53375	0.227054	0	0	0.687677	-0.00106361	-0.1929	1.46828	0.231793	0	0	-0.189625	0.23798	-0.144176	0.502017	-0.409778	0.441066	0.0690272	1.5708	0	0	-0.0874661	-0.187424	0.0253192	0.748423	1.39203	0	0
30.12	-0.799056	1.38969	2.26079	0.655154	0.824181	0.828739	0.842593	-0.256804	0.042854	1.52927	0.224917	0	0	0.685671	-0.000331392	-0.193113	1.46288	0.230362	0	0	-0.190253	0.239943	-0.143765	0.50438	-0.411695	0.441696	0.0677206	1.5708	0	0	-0.0864671	-0.189679	0.0332251	0.749548	1.38623	0	0
30.13	-0.799641	1.38972	2.26186	0.654843	0.824123	0.83005	0.840383	-0.257804	0.0418278	1.52447	0.222803	0	0	0.683599	0.000734808	-0.193235	1.45723	0.228642	0	0	-0.191109	0.24179	-0.143127	0.506412	-0.413972	0.441443	0.0672042	1.5708	0	0	-0.0849977	-0.192453	0.0427869	0.7507	1.37947	0	0
30.14	-0.800751	1.38962	2.26365	0.654534	0.824052	0.831432	0.838329	-0.259203	0.0404986	1.51968	0.220117	0	0	0.681498	0.00197141	-0.193437	1.45133	0.22649	0	0	-0.191797	0.243453	-0.142413	0.507737	-0.416238	0.44039	0.0673187	1.5708	0	0	-0.0832426	-0.196532	0.0558125	0.751997	1.37167	0	0
30.15	-0.807185	1.38775	2.27074	0.654515	0.82395	0.832865	0.837658	-0.261535	0.0409237	1.5153	0.216264	0	0	0.679884	0.0044689	-0.194895	1.44431	0.223169	0	0	-0.190028	0.243113	-0.141833	0.473217	-0.488416	0.867336	0.19906	1.11499	0	0	-0.0803241	-0.203451	0.0766137	0.749962	1.35954	0	0
30.16	-0.804823	1.38864	2.26843	0.654075	0.823792	0.834379	0.835121	-0.261504	0.03938	1.50978	0.211705	0	0	0.677418	0.00440639	-0.195063	1.4384	0.22039	0	0	-0.190271	0.245923	-0.135599	0.505137	-0.422929	0.429871	0.0673384	1.5708	0	0	-0.0727365	-0.216192	0.122145	0.749147	1.32391	0	0
30.17	-0.805301	1.38836	2.26881	0.65387	0.823614	0.835951	0.833406	-0.261888	0.0389392	1.50432	0.208567	0	0	0.675237	0.00486627	-0.196185	1.43156	0.217866	0	0	-0.191476	0.247565	-0.133569	0.506856	-0.424685	0.427132	0.0665878	1.5708	0	0	-0.0703865	-0.219063	0.131866	0.749445	1.324	0	0
30.18	-0.804764	1.38813	2.26809	0.65367	0.823383	0.837584	0.83151	-0.261865	0.0386224	1.49833	0.205516	0	0	0.673106	0.00511705	-0.197269	1.42445	0.215218	0	0	-0.192818	0.249481	-0.131365	0.508743	-0.426225	0.425218	0.0655471	1.5708	0	0	-0.0679917	-0.221492	0.140695	0.749402	1.32579	0	0
30.19	-0.801116	1.38715	2.26545	0.653428	0.823259	0.839178	0.83018	-0.262868	0.0372297	1.49264	0.202471	0	0	0.671954	0.00617822	-0.197259	1.41722	0.212419	0	0	-0.19245	0.25141	-0.130213	0.509213	-0.427716	0.42281	0.064987	1.5708	0	0	-0.0662413	-0.223501	0.148439	0.748862	1.32866	0	0
30.2	-0.796278	1.38621	2.26156	0.653216	0.823134	0.840832	0.828907	-0.263689	0.0355105	1.48681	0.199176	0	0	0.670753	0.00701962	-0.196998	1.40962	0.209553	0	0	-0.192087	0.253588	-0.129024	0.509457	-0.429045	0.419364	0.0646232	1.5708	0	0	-0.0645374	-0.225082	0.155289	0.747769	1.3317	0	0
30.21	-0.789524	1.38529	2.25552	0.653019	0.822971	0.842558	0.82777	-0.263882	0.0338991	1.48055	0.195481	0	0	0.669708	0.00741761	-0.196673	1.40174	0.206546	0	0	-0.191778	0.256192	-0.127554	0.509805	-0.430374	0.415505	0.0641512	1.5708	0	0	-0.0627424	-0.226094	0.161272	0.746026	1.33424	0	0
30.22	-0.780732	1.3843	2.2475	0.652817	0.82278	0.844357	0.826779	-0.263714	0.0322299	1.47403	0.191365	0	0	0.668931	0.00763432	-0.196108	1.39359	0.20341	0	0	-0.191278	0.259028	-0.126134	0.50976	-0.431424	0.411242	0.0637885	1.5708	0	0	-0.0610295	-0.226581	0.166218	0.743688	1.33605	0	0
30.23	-0.770042	1.38335	2.23816	0.652598	0.822601	0.846224	0.825844	-0.26376	0.0298501	1.46756	0.186846	0	0	0.668274	0.00792586	-0.194966	1.38511	0.200158	0	0	-0.19037	0.262144	-0.125395	0.509325	-0.432224	0.406792	0.0636276	1.5708	0	0	-0.0596045	-0.226952	0.170842	0.740875	1.33748	0	0
